<svg version="1.1" id="Layer_1" xmlns="http://www.w3.org/2000/svg" xmlns:xlink="http://www.w3.org/1999/xlink" x="0px" y="0px"
	 width="100%" viewBox="0 0 595 324" enable-background="new 0 0 595 324" xml:space="preserve">
<path fill="#008080" opacity="1.000000" stroke="none" 
	d="
M444.532410,1.000000 
	C460.811951,5.856965 465.171875,18.858690 466.060547,33.336601 
	C467.471771,56.328377 462.130554,77.832520 451.862335,98.119926 
	C446.047424,109.608742 439.417511,120.763153 429.789764,129.663925 
	C425.647064,133.493805 421.073364,137.113388 414.991180,135.845886 
	C412.458221,135.318008 409.421234,133.633972 408.093536,131.538055 
	C403.265259,123.915993 404.843628,109.689354 412.875183,101.507637 
	C424.801453,89.358345 431.424988,74.160271 435.747681,57.978809 
	C436.364502,55.669796 434.978088,51.769341 433.149933,50.190456 
	C431.628021,48.876095 427.785126,49.104187 425.506989,50.005600 
	C414.760193,54.257866 406.821716,62.505375 399.777802,71.079735 
	C391.233124,81.480980 383.257263,92.562897 376.581512,104.234695 
	C367.255066,120.541008 358.576477,137.324814 351.082489,154.540604 
	C344.322937,170.069229 338.911865,186.269745 334.069794,202.520676 
	C330.359070,214.974365 327.547638,227.974060 332.004211,241.014297 
	C335.341217,250.778595 341.089844,258.649017 352.240723,259.426788 
	C357.011597,259.759552 362.522217,258.696106 366.696930,256.427368 
	C375.073761,251.874969 383.624512,246.994095 390.581757,240.594482 
	C415.603912,217.577942 434.820892,189.825897 452.966278,161.301590 
	C456.010498,156.516129 459.028320,151.687958 462.454315,147.180466 
	C464.694336,144.233307 467.431274,141.312225 471.880768,142.424713 
	C477.095490,143.728561 479.965393,147.718430 480.787292,152.446426 
	C481.502350,156.559769 481.400848,161.229141 480.175659,165.194077 
	C474.845612,182.443222 465.387390,197.694214 455.039154,212.231903 
	C443.588593,228.318192 431.344757,243.856323 419.070007,259.334717 
	C407.016815,274.533722 392.327728,286.875885 375.268219,296.096313 
	C359.231750,304.763763 342.149628,307.344330 324.786316,300.755615 
	C314.563660,296.876495 307.318146,288.964722 302.059937,279.355530 
	C294.412170,265.379639 291.298126,250.398697 291.981781,234.545685 
	C292.109406,231.586502 292.000000,228.617111 292.000000,224.705505 
	C287.200287,229.797745 283.055817,234.360336 278.731903,238.745987 
	C270.972687,246.615952 263.621429,255.001999 255.147995,262.023926 
	C245.405731,270.097321 234.912582,277.366150 224.233109,284.181396 
	C210.711472,292.810425 196.208817,298.682068 179.778946,300.241699 
	C162.020355,301.927429 147.228775,296.993256 135.058090,284.413910 
	C126.124847,275.180695 120.768341,263.708954 119.182137,251.065140 
	C117.688232,239.156998 116.617416,227.008606 117.245628,215.065048 
	C118.202599,196.871017 121.394875,178.945053 126.746231,161.350784 
	C135.472198,132.661453 148.475937,106.158417 165.779648,81.813362 
	C174.655609,69.325508 184.430496,57.464409 194.037292,45.511475 
	C204.417404,32.596359 216.520355,21.431499 230.331665,12.281535 
	C238.039749,7.174951 246.254456,2.871911 255.848114,1.368567 
	C260.356903,1.000000 264.713806,1.000000 269.660889,1.348938 
	C278.223938,3.729868 283.627319,8.847159 287.454132,15.917558 
	C294.886414,29.649401 292.686554,44.009586 289.319702,58.021656 
	C285.148468,75.381294 277.935852,91.637070 269.376984,107.382904 
	C257.750488,128.772354 243.631882,148.022629 225.881104,164.799362 
	C208.936996,180.813721 190.092926,193.847473 168.562653,202.496658 
	C160.118195,205.888962 156.773773,209.922882 157.790146,219.141800 
	C159.031708,230.403351 163.139053,239.598343 172.444824,246.016144 
	C183.744019,253.808701 196.011993,253.160797 208.439560,249.163315 
	C221.340775,245.013504 232.396698,237.816757 242.613937,228.997040 
	C257.033203,216.550049 269.908691,202.731369 281.210632,187.428909 
	C288.663086,177.338547 295.978516,167.146744 303.457581,157.076324 
	C306.481781,153.004242 310.509491,149.517471 312.821198,145.104614 
	C321.698181,128.159210 329.575226,110.678986 338.742279,93.899231 
	C350.909546,71.627769 366.256897,51.500183 383.607361,33.010303 
	C396.273712,19.512171 410.185211,7.481529 428.000000,1.000000 
	C433.354919,1.000000 438.709869,1.000000 444.532410,1.000000 
M200.498230,96.966499 
	C185.861969,118.493416 175.631241,142.109634 167.446686,167.037857 
	C174.489395,163.965576 181.175766,160.520798 187.689575,156.775925 
	C203.936646,147.435318 216.222839,133.778732 227.277786,119.059685 
	C238.023911,104.751808 247.474930,89.579437 253.160385,72.405708 
	C253.970642,69.958183 254.608124,67.411133 254.948776,64.859833 
	C255.543030,60.409367 255.242477,55.245987 250.748352,53.741005 
	C247.658386,52.706238 242.866257,54.017006 239.864868,55.911278 
	C223.622421,66.162384 211.482513,80.538887 200.498230,96.966499 
z"/>
<path fill="#008080" opacity="1.000000" stroke="none" 
	d="
M596.000000,154.562500 
	C590.112854,161.406937 584.130066,167.729218 578.365479,174.244644 
	C572.605530,180.754883 567.113831,187.501724 561.416077,194.068069 
	C550.099060,207.110275 538.736572,220.113083 527.363098,233.106155 
	C519.989258,241.530106 512.590393,249.932510 505.152588,258.300018 
	C496.609558,267.911011 487.995117,277.458466 479.461761,287.077942 
	C478.612579,288.035248 478.110779,289.300629 477.447723,290.423035 
	C476.968109,290.101776 476.488525,289.780548 476.008911,289.459290 
	C476.008911,281.211945 475.342590,272.883575 476.331268,264.756500 
	C476.736389,261.426086 480.568909,258.404572 483.094116,255.458405 
	C495.615112,240.850113 508.187836,226.285767 520.807861,211.762894 
	C528.364197,203.067200 536.075378,194.506165 543.650574,185.826645 
	C548.080261,180.751129 552.379395,175.561615 556.714111,170.450745 
	C546.364197,157.700806 536.031433,144.797440 525.505127,132.053986 
	C515.052124,119.399254 504.398102,106.910599 493.844635,94.338707 
	C488.681274,88.187889 483.352783,82.159752 478.511627,75.763802 
	C476.985504,73.747536 476.128601,70.722969 476.105804,68.149765 
	C475.918335,46.999210 475.999939,25.846258 475.999939,3.460188 
	C480.711243,8.972219 484.836731,13.669010 488.817963,18.485065 
	C496.111908,27.308441 503.323914,36.199593 510.564087,45.067371 
	C519.059753,55.472916 527.516907,65.910149 536.051208,76.283882 
	C543.034790,84.772636 550.134827,93.165466 557.133118,101.642189 
	C566.198242,112.622437 575.199097,123.655792 584.257568,134.641571 
	C587.908569,139.069382 591.638977,143.431747 595.666626,147.911942 
	C596.000000,150.041672 596.000000,152.083328 596.000000,154.562500 
z"/>
<path fill="#008080" opacity="1.000000" stroke="none" 
	d="
M1.000002,171.444168 
	C6.557903,164.585556 12.244828,158.277527 17.643799,151.731964 
	C25.971962,141.635178 34.129131,131.396698 42.310505,121.179626 
	C51.308235,109.943077 60.189831,98.613113 69.235291,87.415329 
	C78.399094,76.071037 87.710495,64.846054 96.939499,53.554295 
	C102.395401,46.878960 107.816879,40.175491 113.992188,32.576046 
	C113.992188,42.124130 114.691849,50.753418 113.669533,59.173641 
	C113.221031,62.867771 109.465065,66.298599 106.859497,69.569023 
	C94.528656,85.046280 82.030922,100.390488 69.681229,115.852844 
	C59.068470,129.140472 48.575378,142.523682 37.897293,156.031708 
	C57.927956,182.186752 77.951218,208.349350 97.997284,234.494476 
	C102.666092,240.583786 107.578384,246.495682 112.019867,252.744217 
	C113.317039,254.569199 113.902985,257.271942 113.917892,259.578156 
	C114.056831,281.072296 114.000069,302.567657 114.000000,324.531342 
	C114.000000,325.000000 113.500000,325.000000 113.162941,324.668091 
	C104.221809,313.254059 95.543633,302.228485 87.033157,291.074951 
	C77.241020,278.241699 67.657616,265.249237 57.874363,252.409103 
	C44.318981,234.618179 30.694975,216.879227 17.031387,199.171234 
	C11.785193,192.372177 6.349397,185.719421 1.000000,179.000000 
	C1.000000,176.629440 1.000000,174.258896 1.000002,171.444168 
z"/>
</svg>